<?xml version="1.0" encoding="UTF-8" standalone="no"?>
<svg
   version="1.1"
   width="545"
   height="545"
   viewBox="0 0 545 545"
   id="svg6"
   sodipodi:docname="vefavicon.svg"
   inkscape:version="1.2.2 (b0a8486541, 2022-12-01)"
   xmlns:inkscape="http://www.inkscape.org/namespaces/inkscape"
   xmlns:sodipodi="http://sodipodi.sourceforge.net/DTD/sodipodi-0.dtd"
   xmlns="http://www.w3.org/2000/svg"
   xmlns:svg="http://www.w3.org/2000/svg">
  <defs
     id="defs10" />
  <sodipodi:namedview
     id="namedview8"
     pagecolor="#ffffff"
     bordercolor="#666666"
     borderopacity="1.0"
     inkscape:showpageshadow="2"
     inkscape:pageopacity="0.0"
     inkscape:pagecheckerboard="0"
     inkscape:deskcolor="#d1d1d1"
     showgrid="false"
     inkscape:zoom="1.2247868"
     inkscape:cx="213.91478"
     inkscape:cy="283.31461"
     inkscape:window-width="1920"
     inkscape:window-height="1014"
     inkscape:window-x="0"
     inkscape:window-y="0"
     inkscape:window-maximized="1"
     inkscape:current-layer="svg6" />
  <style
     id="style4">@media (prefers-color-scheme: light) { :root { filter: none; } }
@media (prefers-color-scheme: dark) { :root { filter: none; } }
</style>
  <rect
     style="fill:#004a85;fill-opacity:1;stroke:none;stroke-width:0;stroke-linecap:square;stroke-dasharray:none;stroke-dashoffset:7.99752;stroke-opacity:1;paint-order:fill markers stroke"
     id="rect6900"
     width="545"
     height="545"
     x="3.0031529e-07"
     y="3.0803574e-07" />
  <path
     style="fill:#f8c1a2;fill-opacity:1;stroke:#000000;stroke-width:10;stroke-linecap:square;stroke-dasharray:none;stroke-dashoffset:7.99752;stroke-opacity:1;paint-order:fill markers stroke"
     id="path7591"
     sodipodi:type="arc"
     sodipodi:cx="272.48468"
     sodipodi:cy="272.49997"
     sodipodi:rx="167.35515"
     sodipodi:ry="233.53761"
     sodipodi:start="0.011934356"
     sodipodi:end="6.2751074"
     sodipodi:open="true"
     sodipodi:arc-type="arc"
     d="M 439.82791,275.28702 A 167.35515,233.53761 0 0 1 271.3247,506.03197 167.35515,233.53761 0 0 1 105.12984,272.04966 167.35515,233.53761 0 0 1 271.97009,38.963461 167.35515,233.53761 0 0 1 439.83437,270.61349" />
  <path
     style="fill:#d20023;fill-opacity:1;stroke:#704c06;stroke-width:9.99999;stroke-linecap:square;stroke-dasharray:none;stroke-dashoffset:7.99752;stroke-opacity:1;paint-order:fill markers stroke"
     id="path26032"
     sodipodi:type="arc"
     sodipodi:cx="272.48358"
     sodipodi:cy="272.49997"
     sodipodi:rx="134.94801"
     sodipodi:ry="188.70827"
     sodipodi:start="0.011934356"
     sodipodi:end="6.2751074"
     sodipodi:open="true"
     sodipodi:arc-type="arc"
     d="M 407.42198,274.75203 A 134.94801,188.70827 0 0 1 271.54823,461.2037 134.94801,188.70827 0 0 1 137.53582,272.1361 134.94801,188.70827 0 0 1 272.06864,83.792594 134.94801,188.70827 0 0 1 407.42719,270.97562" />
  <path
     d="m 320.64623,313.08195 35.10456,94.77122 -87.32416,-60.10621 z"
     style="fill:#e24942;fill-opacity:1;fill-rule:evenodd;stroke:none;stroke-width:0.133334"
     id="path119894" />
  <path
     d="m 220.89398,313.08197 -34.34605,94.77122 85.4371,-60.10621 z"
     style="fill:#ae2722;fill-opacity:1;fill-rule:evenodd;stroke:none;stroke-width:0.133334"
     id="path119896" />
  <path
     d="m 147.99742,301.34329 124.50381,57.21488 V 200.62367 L 253.1393,176.00428 147.99742,301.34329"
     style="fill:#e24942;fill-opacity:1;fill-rule:evenodd;stroke:none;stroke-width:0.133332"
     id="path110698" />
  <path
     d="m 224.93014,228.12683 -34.37033,-90.95242 85.49771,57.68423 z"
     style="fill:#e24942;fill-opacity:1;fill-rule:evenodd;stroke:none;stroke-width:0.133334"
     id="path110716" />
  <path
     d="m 396.81852,301.34331 -124.83484,57.21487 v -157.9345 l 19.41377,-24.61939 105.42107,125.33902"
     style="fill:#ae2722;fill-opacity:1;fill-rule:evenodd;stroke:none;stroke-width:0.133334"
     id="path110728" />
  <path
     d="m 323.62723,228.12683 34.37096,-90.95242 -85.49906,57.68423 z"
     style="fill:#ae2722;fill-opacity:1;fill-rule:evenodd;stroke:none;stroke-width:0.133334"
     id="path110746" />
  <path
     d="m 272.50054,387.08337 71.92134,-182.36938 -71.92134,-46.79739 -71.91995,46.79739 71.91995,182.36938"
     style="fill:#f57d61;fill-opacity:1;fill-rule:evenodd;stroke:none;stroke-width:0.133332"
     id="path110732" />
</svg>
